<?xml version="1.0" standalone="no"?>
<!DOCTYPE svg PUBLIC "-//W3C//DTD SVG 20010904//EN"
 "http://www.w3.org/TR/2001/REC-SVG-20010904/DTD/svg10.dtd">
<svg version="1.0" xmlns="http://www.w3.org/2000/svg"
 width="800.000000pt" height="800.000000pt" viewBox="0 0 800.000000 800.000000"
 preserveAspectRatio="xMidYMid meet">
<metadata>
Created by potrace 1.11, written by Peter Selinger 2001-2013
</metadata>
<g transform="translate(0.000000,800.000000) scale(0.100000,-0.100000)"
fill="#000000" stroke="none">
<path d="M5270 6751 c0 -4 -37 -11 -82 -15 -104 -8 -198 -26 -198 -37 0 -5
-10 -9 -21 -9 -31 0 -99 -22 -99 -32 0 -4 -7 -8 -16 -8 -18 0 -86 -30 -94 -41
-3 -4 -24 -12 -48 -18 -24 -7 -52 -21 -63 -32 -10 -10 -25 -19 -33 -19 -8 0
-16 -6 -19 -13 -3 -7 -24 -19 -46 -26 -23 -6 -55 -25 -70 -42 -15 -16 -31 -29
-35 -29 -4 0 -14 -6 -21 -12 -31 -28 -45 -38 -51 -38 -4 0 -19 -11 -33 -25
-53 -49 -96 -85 -103 -85 -5 0 -26 -18 -48 -40 -22 -22 -47 -40 -55 -40 -8 0
-20 -10 -26 -22 -13 -24 -68 -78 -80 -78 -3 0 -12 -13 -18 -28 -7 -16 -25 -36
-41 -46 -17 -9 -30 -22 -30 -27 0 -5 -18 -27 -40 -48 -22 -21 -40 -41 -40 -45
0 -8 -62 -66 -70 -66 -4 0 -12 -16 -20 -35 -7 -19 -19 -36 -27 -39 -7 -3 -13
-12 -13 -20 0 -7 -7 -16 -15 -20 -9 -3 -15 0 -15 8 0 11 -9 25 -50 73 -5 7
-10 15 -10 18 0 3 -10 17 -22 30 -38 40 -48 54 -48 64 0 6 -9 15 -20 21 -11 6
-20 17 -20 25 0 8 -7 18 -16 23 -11 6 -18 27 -22 61 -2 28 -7 51 -11 51 -3 0
-22 15 -42 33 -20 17 -46 39 -58 47 -13 9 -21 25 -21 43 0 20 -6 30 -20 34
-11 3 -20 12 -20 19 0 8 -4 14 -8 14 -4 0 -14 20 -21 45 -7 25 -17 45 -22 45
-5 0 -9 9 -9 20 0 11 -6 23 -13 26 -8 3 -20 20 -27 39 -12 31 -21 37 -72 51
-32 9 -58 20 -58 25 0 4 -16 11 -36 15 -19 4 -38 12 -40 19 -3 7 -32 19 -65
26 -32 7 -59 16 -59 20 0 4 -20 15 -45 25 -25 9 -45 20 -45 24 0 11 -81 30
-124 30 -20 0 -36 5 -36 10 0 6 -7 10 -15 10 -8 0 -15 -4 -15 -10 0 -5 -16
-10 -36 -10 -52 0 -164 -22 -164 -32 0 -4 -21 -8 -47 -8 -49 0 -143 -28 -143
-42 0 -4 -12 -8 -28 -8 -17 0 -40 -12 -60 -30 -18 -16 -39 -30 -47 -30 -8 0
-26 -11 -41 -25 -15 -14 -31 -25 -35 -25 -5 0 -27 -18 -50 -40 -23 -22 -47
-40 -52 -40 -16 0 -97 -86 -97 -104 0 -9 -4 -16 -10 -16 -5 0 -13 -12 -16 -27
-4 -16 -11 -31 -17 -34 -12 -8 -11 -240 1 -248 5 -3 12 -27 16 -53 4 -27 11
-48 16 -48 4 0 11 -18 15 -40 4 -22 11 -40 16 -40 5 0 14 -11 19 -25 5 -14 14
-25 19 -25 5 0 12 -11 15 -25 4 -14 11 -25 16 -25 6 0 10 -7 10 -15 0 -8 9
-20 20 -27 11 -7 20 -19 20 -26 0 -7 33 -46 73 -87 39 -41 78 -80 85 -87 48
-51 69 -68 79 -68 7 0 13 -6 13 -14 0 -8 7 -16 15 -20 8 -3 15 -12 15 -19 0
-8 12 -19 27 -26 30 -14 73 -52 73 -65 0 -5 15 -22 33 -38 119 -106 153 -137
183 -165 19 -18 38 -33 43 -33 4 0 20 -11 35 -25 15 -14 30 -25 35 -25 4 0 30
-21 58 -47 28 -27 67 -62 87 -80 20 -18 36 -36 36 -41 0 -5 -24 -12 -52 -16
-29 -4 -68 -9 -85 -12 -22 -4 -33 -2 -33 6 0 21 -28 40 -59 40 -17 0 -31 -4
-31 -8 0 -5 -34 -17 -75 -27 -41 -11 -75 -22 -75 -27 0 -4 -16 -10 -35 -14
-37 -7 -89 -50 -100 -83 -3 -12 -11 -21 -16 -21 -5 0 -9 -5 -9 -11 0 -6 -47
-57 -105 -114 -58 -57 -105 -109 -105 -114 0 -6 -14 -24 -30 -41 -17 -17 -30
-35 -30 -40 0 -5 -11 -17 -25 -26 -14 -9 -25 -25 -25 -35 0 -11 -4 -19 -8 -19
-4 0 -14 -16 -21 -35 -7 -19 -16 -35 -21 -35 -4 0 -11 -22 -15 -49 -4 -27 -12
-52 -19 -54 -9 -4 -15 -40 -20 -108 -4 -57 -11 -106 -15 -109 -5 -3 -11 -79
-15 -170 -4 -91 -12 -166 -17 -168 -12 -5 -12 -292 0 -292 4 0 11 -27 15 -60
4 -33 11 -60 15 -60 4 0 13 -38 20 -85 7 -47 17 -85 21 -85 4 0 10 -19 13 -41
3 -23 10 -45 15 -48 6 -3 13 -23 17 -44 4 -21 14 -44 22 -52 8 -8 17 -31 20
-50 3 -19 10 -35 15 -35 5 0 14 -14 19 -30 6 -17 15 -30 19 -30 5 0 12 -10 16
-22 3 -12 12 -27 18 -34 6 -6 20 -24 31 -40 11 -15 25 -33 32 -39 7 -7 15 -24
19 -39 3 -14 10 -26 14 -26 5 0 14 -16 20 -35 6 -19 16 -35 21 -35 5 0 9 -7 9
-15 0 -9 6 -18 14 -21 8 -3 17 -21 20 -40 4 -19 11 -34 16 -34 6 0 10 -9 10
-19 0 -11 5 -23 10 -26 6 -3 10 -15 10 -26 0 -10 5 -19 10 -19 6 0 10 -9 10
-20 0 -10 9 -24 20 -30 11 -6 20 -17 20 -26 0 -16 39 -34 76 -34 13 0 24 -4
24 -9 0 -6 21 -13 48 -17 28 -4 56 -16 70 -29 12 -13 35 -26 49 -30 15 -3 32
-13 38 -22 8 -11 35 -17 88 -21 43 -2 77 -8 77 -12 0 -4 17 -10 38 -13 95 -12
198 -32 203 -40 11 -15 82 -27 169 -27 105 0 350 21 350 30 0 4 76 10 170 14
93 4 184 11 202 17 18 5 52 9 75 9 24 0 43 5 43 10 0 6 38 10 94 10 99 0 196
14 206 30 3 5 29 14 58 21 29 6 58 17 66 24 7 8 43 19 80 26 36 6 66 14 66 19
0 13 139 31 160 20 26 -14 49 -12 66 5 9 8 24 15 35 15 10 0 19 4 19 8 0 5 19
14 41 21 41 12 51 19 90 53 10 10 22 18 25 18 15 0 80 35 87 47 4 7 14 13 22
13 7 0 20 6 27 13 7 6 27 19 43 27 17 8 38 22 48 32 10 10 27 18 38 18 11 0
22 6 25 14 3 7 24 22 47 32 23 11 49 25 57 32 44 39 76 62 86 62 7 0 14 7 18
15 3 9 18 15 38 15 44 0 54 8 63 49 4 19 14 41 21 49 8 7 14 26 14 40 0 16 8
32 20 40 11 7 20 18 20 26 0 8 7 16 15 20 8 3 15 12 15 21 0 8 4 15 8 15 5 0
14 11 21 24 7 13 24 30 37 37 13 7 24 18 24 26 0 7 6 13 13 13 12 0 37 44 37
67 0 7 5 13 10 13 6 0 10 9 10 20 0 10 9 27 19 37 11 10 22 35 26 56 4 20 11
37 16 37 4 0 11 20 15 45 3 25 10 45 15 45 5 0 9 36 9 80 0 44 -4 80 -9 80 -4
0 -11 32 -14 72 -3 39 -10 74 -15 77 -5 3 -16 56 -23 116 -7 61 -16 112 -19
115 -4 3 -10 22 -13 43 -3 20 -13 44 -21 52 -8 8 -18 24 -21 36 -4 11 -20 33
-36 50 -16 16 -29 36 -29 44 0 8 -4 15 -9 15 -5 0 -14 14 -20 31 -6 17 -22 42
-35 54 -13 12 -27 32 -31 43 -3 12 -13 22 -21 22 -8 0 -14 5 -14 12 0 6 -13
23 -28 37 -17 15 -34 46 -42 76 -18 65 -39 88 -74 79 -14 -3 -26 -11 -26 -16
0 -5 -7 -2 -15 6 -9 9 -34 21 -55 27 -22 7 -40 15 -40 19 0 4 -13 13 -30 20
-16 7 -30 19 -30 26 0 8 -11 19 -25 24 -14 5 -25 14 -25 19 0 5 -10 13 -22 17
-13 4 -33 16 -44 28 -41 40 -72 66 -80 66 -4 0 -15 8 -24 17 -15 16 -15 18 1
34 9 9 28 19 44 23 15 4 29 16 32 26 3 11 18 25 34 32 16 7 29 19 29 26 0 7 7
15 15 18 8 4 15 12 15 19 0 7 18 27 40 46 22 19 40 39 40 46 0 7 9 17 20 23
11 6 20 15 20 20 0 5 16 26 36 47 57 61 64 69 64 76 0 4 8 15 18 25 9 10 24
29 32 41 8 13 23 32 33 43 9 12 17 27 17 35 0 7 6 16 14 19 8 3 17 16 20 30 4
13 11 24 16 24 5 0 12 16 16 35 3 19 10 35 15 35 5 0 14 11 19 25 5 14 14 25
20 25 5 0 12 11 16 24 3 14 12 27 19 29 7 3 15 22 19 41 4 20 11 36 16 36 6 0
10 9 10 19 0 11 7 26 15 35 8 8 18 29 21 45 4 17 10 31 13 31 4 0 14 23 21 50
7 28 17 50 21 50 4 0 10 14 14 30 4 17 10 30 14 30 4 0 14 25 21 55 7 30 16
55 20 55 4 0 11 34 15 75 4 41 11 75 16 75 5 0 9 56 9 125 0 70 -4 125 -9 125
-5 0 -13 25 -16 55 -4 30 -11 55 -15 55 -4 0 -12 25 -19 55 -7 30 -17 55 -22
55 -5 0 -11 11 -15 25 -3 14 -10 25 -15 25 -5 0 -9 8 -9 17 0 22 -77 95 -126
118 -21 10 -44 24 -52 31 -7 7 -29 16 -50 20 -20 4 -39 10 -42 13 -7 9 -134
41 -164 41 -14 0 -26 5 -26 10 0 6 -35 10 -85 10 -47 0 -85 -4 -85 -9z m249
-89 c4 -7 41 -19 82 -28 41 -8 78 -22 82 -30 4 -8 15 -14 23 -14 8 0 17 -7 20
-15 4 -8 12 -15 19 -15 17 0 85 -63 85 -79 0 -6 5 -11 10 -11 6 0 10 -9 10
-20 0 -11 9 -28 20 -37 11 -9 22 -36 26 -60 3 -24 10 -43 14 -43 4 0 11 -29
15 -65 3 -36 11 -65 16 -65 5 0 9 -34 9 -75 0 -41 -4 -75 -9 -75 -5 0 -12 -34
-16 -75 -4 -41 -10 -75 -14 -75 -4 0 -13 -27 -19 -60 -7 -33 -17 -60 -21 -60
-5 0 -12 -16 -15 -35 -4 -19 -11 -35 -16 -35 -5 0 -12 -16 -16 -35 -3 -19 -10
-35 -15 -35 -5 0 -14 -20 -20 -45 -6 -25 -15 -45 -20 -45 -5 0 -9 -9 -9 -19 0
-11 -6 -26 -14 -33 -7 -8 -17 -28 -20 -45 -4 -17 -16 -42 -26 -55 -11 -13 -23
-27 -28 -33 -4 -5 -11 -18 -15 -27 -3 -10 -10 -18 -15 -18 -5 0 -15 -18 -22
-40 -7 -22 -17 -40 -22 -40 -4 0 -8 -6 -8 -14 0 -8 -6 -21 -14 -28 -7 -8 -16
-24 -20 -36 -4 -12 -20 -34 -35 -49 -15 -16 -34 -42 -41 -60 -8 -18 -25 -37
-37 -44 -13 -7 -23 -17 -23 -22 0 -11 -5 -17 -64 -80 -20 -21 -36 -41 -36 -46
0 -4 -18 -23 -40 -42 -22 -19 -40 -40 -40 -47 0 -7 -7 -15 -15 -18 -8 -4 -15
-11 -15 -18 0 -6 -13 -17 -29 -24 -16 -7 -31 -21 -34 -31 -2 -10 -17 -21 -33
-25 -15 -4 -34 -16 -42 -27 -7 -10 -22 -19 -33 -19 -23 0 -61 20 -72 38 -4 6
-19 12 -32 12 -13 0 -29 8 -34 18 -6 11 -32 22 -73 31 -34 7 -66 17 -69 23 -3
5 -39 14 -80 19 -41 6 -76 15 -79 19 -3 5 -62 16 -130 24 -69 9 -126 20 -128
26 -2 5 -15 10 -28 10 -26 0 -29 5 -14 23 6 7 20 23 31 37 l21 25 -21 3 c-17
3 -20 8 -15 25 4 12 10 24 13 27 4 3 13 21 21 40 8 19 20 39 27 43 7 4 13 12
13 18 0 5 9 19 20 31 11 12 20 30 20 40 0 10 5 18 10 18 6 0 10 6 10 14 0 8 6
21 13 28 8 7 20 24 27 38 7 13 17 29 22 34 4 6 17 22 28 35 11 13 20 30 20 38
0 7 5 13 11 13 5 0 15 14 20 30 6 17 15 30 20 30 5 0 12 7 16 17 5 14 26 39
88 104 8 9 15 18 15 22 0 3 38 45 85 92 47 47 85 89 85 93 0 4 17 21 37 37 20
17 43 37 50 45 7 8 27 30 43 48 17 18 30 37 30 43 0 5 11 14 25 19 14 5 25 16
25 24 0 7 14 19 30 26 17 7 30 19 30 27 0 8 14 19 30 24 17 6 30 18 30 26 0 8
9 17 20 20 10 3 22 13 25 24 3 10 14 20 23 23 10 3 24 16 32 28 8 11 26 31 39
42 13 12 38 35 55 51 18 17 44 36 59 44 15 8 27 18 27 22 0 5 14 16 32 25 17
9 45 31 62 49 32 32 81 55 121 55 13 0 25 7 29 15 4 12 -3 15 -30 15 -21 0
-37 -6 -40 -14 -3 -8 -18 -17 -33 -21 -15 -3 -41 -18 -58 -33 -17 -15 -43 -36
-59 -47 -15 -11 -36 -28 -46 -37 -10 -10 -22 -18 -26 -18 -5 0 -32 -21 -59
-47 -28 -27 -85 -79 -128 -118 -42 -38 -96 -88 -120 -110 -24 -22 -62 -56 -84
-75 -22 -19 -41 -38 -41 -42 0 -9 -22 -36 -68 -81 -146 -145 -212 -215 -212
-225 0 -5 -11 -15 -25 -22 -14 -7 -25 -18 -25 -23 0 -9 -10 -21 -70 -86 -14
-15 -31 -39 -37 -54 -7 -15 -17 -27 -23 -27 -5 0 -10 -7 -10 -15 0 -9 -7 -18
-15 -21 -8 -4 -15 -12 -15 -19 0 -6 -9 -22 -20 -35 -11 -13 -20 -26 -20 -30 0
-6 -14 -24 -51 -68 -6 -7 -15 -29 -21 -49 -5 -19 -19 -45 -31 -57 -12 -11 -29
-34 -37 -51 -8 -16 -21 -36 -27 -43 -7 -7 -13 -20 -13 -28 0 -8 -4 -14 -9 -14
-5 0 -12 -13 -16 -30 -4 -16 -11 -30 -16 -30 -14 0 -11 -58 4 -64 6 -3 -10 -3
-38 1 -27 3 -51 10 -53 14 -2 5 -17 9 -32 9 -39 0 -134 21 -140 30 -12 19
-210 32 -377 25 -157 -7 -173 -6 -179 9 -4 10 -2 22 5 29 6 6 11 21 11 34 0
13 5 23 10 23 6 0 10 12 10 26 0 23 3 26 25 22 30 -6 35 18 5 27 -20 6 -28 25
-11 25 5 0 14 27 22 60 7 33 16 60 20 60 4 0 10 16 13 35 4 19 11 35 16 35 5
0 12 16 16 35 3 19 10 35 15 35 5 0 9 6 9 13 0 18 24 67 33 67 4 0 7 8 7 18 0
29 42 70 75 74 30 3 30 4 27 58 -2 54 11 97 35 113 7 4 13 14 13 21 0 8 7 16
15 20 8 3 15 11 15 18 0 7 14 22 30 33 16 11 30 24 30 29 0 5 22 32 50 60 27
28 67 70 89 94 22 23 45 42 51 42 5 0 10 6 10 13 0 7 10 23 23 34 12 11 31 32
42 46 11 15 25 26 30 27 6 0 28 16 48 35 20 19 42 35 47 35 6 0 32 22 59 49
27 27 63 57 80 66 17 8 31 20 31 25 0 6 6 10 13 10 7 0 27 14 45 30 18 17 39
30 46 30 7 0 23 9 36 20 13 11 29 20 36 20 7 0 17 6 21 13 10 16 74 47 97 47
9 0 16 4 16 8 0 4 16 14 35 21 19 7 35 16 35 20 0 4 19 14 43 21 23 7 44 16
47 20 6 9 147 40 185 40 14 0 25 4 25 9 0 14 58 19 223 17 107 -1 150 -5 156
-14z m-2786 -54 c9 -9 30 -19 46 -23 16 -3 32 -12 35 -20 3 -8 21 -17 40 -21
20 -3 36 -10 36 -14 0 -5 15 -11 33 -15 46 -9 97 -28 97 -35 0 -4 23 -13 50
-20 28 -7 50 -17 50 -21 0 -4 13 -16 30 -25 18 -11 32 -30 36 -48 4 -17 13
-35 21 -41 8 -6 16 -33 18 -60 2 -27 9 -51 15 -53 5 -2 10 -10 10 -17 0 -8 6
-20 13 -27 7 -7 19 -48 27 -90 7 -43 16 -78 20 -78 4 0 11 -25 15 -55 3 -30
10 -55 14 -55 5 0 11 -31 15 -69 4 -38 11 -71 16 -73 5 -2 14 -40 22 -85 7
-46 16 -83 20 -83 4 0 8 -38 8 -84 0 -81 1 -84 25 -88 31 -6 35 21 5 29 -20 5
-29 43 -10 43 6 0 10 20 10 45 0 25 -4 45 -9 45 -5 0 -13 26 -17 58 -4 31 -11
59 -15 63 -11 6 -29 99 -29 145 0 19 -4 34 -9 34 -5 0 -12 21 -16 48 -4 26
-10 49 -15 52 -14 9 -23 90 -10 90 16 0 70 -52 70 -66 0 -7 7 -14 15 -18 8 -3
15 -11 15 -18 0 -7 9 -19 20 -26 11 -7 20 -18 20 -25 0 -8 11 -20 25 -27 13
-7 27 -26 30 -42 4 -15 15 -33 26 -38 10 -6 19 -15 19 -21 0 -10 11 -25 41
-57 9 -9 19 -29 23 -44 3 -16 11 -28 16 -28 6 0 10 -9 10 -20 0 -11 -4 -20 -8
-20 -5 0 -15 -18 -22 -40 -7 -22 -16 -40 -21 -40 -4 0 -10 -12 -13 -26 -6 -24
-13 -35 -44 -69 -6 -7 -17 -36 -24 -64 -6 -28 -15 -51 -19 -51 -4 0 -10 -13
-14 -30 -4 -16 -10 -30 -14 -30 -4 0 -12 -21 -17 -47 -5 -25 -14 -48 -20 -50
-14 -5 -84 65 -84 83 0 6 -23 32 -87 98 -13 13 -23 27 -23 32 0 5 -9 15 -20
22 -11 7 -20 16 -20 21 0 6 -22 33 -50 62 -27 29 -50 58 -50 66 0 7 -6 13 -13
13 -7 0 -21 11 -31 25 -10 14 -25 25 -32 25 -7 0 -15 9 -19 19 -3 11 -15 23
-26 26 -10 4 -19 12 -19 20 0 7 -16 20 -36 30 -20 9 -51 32 -68 51 -17 19 -36
34 -42 34 -14 0 -124 105 -124 119 0 6 -4 11 -9 11 -5 0 -13 10 -17 22 -3 12
-22 36 -40 54 -19 17 -34 36 -34 43 0 6 -4 11 -10 11 -5 0 -12 11 -16 25 -3
14 -15 30 -25 36 -11 5 -19 16 -19 24 0 8 -4 15 -10 15 -5 0 -10 7 -10 15 0 8
-9 20 -20 27 -11 7 -20 18 -20 24 0 6 -9 22 -20 35 -11 13 -23 29 -28 34 -4 6
-14 24 -21 42 -7 17 -19 34 -27 37 -8 3 -14 12 -14 21 0 8 -4 15 -8 15 -4 0
-14 16 -21 35 -7 19 -16 35 -21 35 -5 0 -11 9 -15 19 -3 11 -15 23 -26 26 -25
8 -25 35 1 35 10 0 23 7 28 16 6 11 34 18 102 24 51 5 96 13 99 18 16 26 208
26 234 0z m-470 -122 c48 -51 67 -78 67 -96 0 -8 8 -23 18 -32 24 -24 35 -39
50 -71 13 -30 21 -41 64 -88 15 -16 31 -41 34 -54 3 -14 15 -30 25 -36 11 -5
19 -16 19 -24 0 -8 4 -15 10 -15 5 0 12 -11 16 -25 3 -14 15 -30 25 -36 11 -5
19 -14 19 -19 0 -9 7 -18 55 -71 8 -9 15 -20 15 -25 1 -5 14 -20 30 -34 17
-13 30 -30 30 -37 0 -7 6 -13 14 -13 7 0 25 -11 40 -25 15 -14 30 -25 34 -25
4 0 31 -21 59 -47 29 -27 86 -79 129 -118 42 -38 84 -78 93 -89 9 -10 28 -32
44 -48 15 -16 27 -33 27 -38 0 -5 9 -14 20 -20 11 -6 20 -15 20 -21 0 -5 18
-28 40 -50 22 -22 40 -44 40 -48 0 -4 11 -14 25 -21 13 -7 27 -26 30 -41 4
-16 10 -29 13 -29 4 0 20 -12 35 -26 25 -23 28 -31 22 -68 -4 -22 -11 -42 -16
-44 -5 -2 -9 -17 -9 -32 0 -16 -4 -32 -10 -35 -5 -3 -10 -24 -10 -45 0 -39 -1
-40 -40 -46 -22 -4 -40 -10 -40 -14 0 -13 -59 -30 -101 -30 -22 0 -39 -4 -39
-9 0 -4 -34 -14 -75 -21 -41 -7 -75 -17 -75 -21 0 -5 -9 -9 -20 -9 -11 0 -20
4 -20 9 0 5 -10 13 -22 17 -13 4 -41 24 -63 45 -106 101 -160 149 -167 149 -7
0 -16 7 -70 53 -12 9 -24 17 -27 17 -4 0 -42 34 -86 75 -43 41 -82 75 -86 75
-4 0 -9 6 -12 13 -3 9 12 11 64 9 38 -2 69 -7 69 -11 0 -5 30 -11 68 -15 170
-16 197 -19 203 -28 3 -4 50 -12 104 -18 70 -6 103 -14 111 -24 14 -20 24 -20
24 -3 0 22 -46 37 -110 37 -33 0 -60 4 -60 9 0 11 -101 31 -156 31 -23 0 -44
4 -46 9 -1 5 -64 14 -138 20 -74 6 -136 16 -138 21 -2 6 -10 10 -18 10 -8 0
-41 27 -74 60 -33 33 -64 60 -69 60 -5 0 -13 9 -16 20 -3 11 -10 20 -16 20
-10 0 -44 26 -66 50 -28 32 -111 116 -129 132 -27 24 -44 46 -44 57 0 5 -8 16
-19 23 -10 7 -22 24 -26 37 -4 14 -16 34 -26 45 -11 11 -19 26 -19 33 0 7 -4
13 -10 13 -5 0 -13 18 -16 40 -4 22 -10 40 -15 40 -7 0 -11 18 -24 134 l-5 48
32 -6 c18 -3 34 -10 38 -15 3 -4 27 -13 55 -20 27 -7 52 -17 56 -22 3 -5 43
-17 90 -25 46 -9 87 -20 90 -25 3 -5 32 -14 65 -20 32 -6 61 -14 64 -17 7 -9
49 -29 79 -38 14 -3 34 -15 45 -25 11 -11 31 -19 44 -19 14 0 30 -7 37 -16 6
-9 18 -15 25 -12 20 6 -17 38 -44 38 -13 0 -35 11 -49 24 -14 13 -41 26 -60
30 -19 4 -37 13 -40 20 -3 8 -25 17 -49 21 -24 4 -45 11 -48 16 -3 4 -46 16
-95 25 -50 10 -92 21 -95 25 -3 4 -25 13 -50 20 -25 7 -47 16 -50 19 -3 3 -30
12 -60 18 -81 18 -81 17 -70 95 10 69 16 81 59 120 13 12 29 28 37 35 7 6 16
12 21 12 4 0 21 14 36 30 42 44 59 40 56 -13 -2 -33 2 -48 19 -65 22 -22 42
-29 42 -14 0 4 -9 13 -20 20 -14 8 -20 23 -20 46 0 55 12 97 29 104 9 3 18 8
21 12 8 10 74 40 88 40 8 0 28 -15 45 -34z m1547 -1645 c0 -4 43 -13 97 -19
53 -6 99 -16 103 -22 3 -5 39 -14 79 -19 40 -5 75 -12 79 -15 3 -3 -29 -6 -71
-6 l-77 0 0 -34 c0 -31 3 -34 39 -40 22 -3 46 -13 55 -21 8 -8 23 -15 33 -15
11 0 29 -10 40 -22 12 -13 46 -45 77 -73 31 -27 56 -54 56 -60 0 -5 14 -19 30
-30 16 -11 30 -28 30 -38 0 -9 11 -27 25 -39 14 -12 25 -27 25 -33 0 -6 11
-17 24 -25 14 -7 30 -27 37 -44 8 -17 17 -35 21 -41 5 -5 17 -21 28 -34 11
-13 20 -30 20 -38 0 -7 5 -13 10 -13 6 0 15 -20 22 -45 7 -25 15 -45 19 -45 3
0 10 -24 13 -52 4 -29 11 -55 16 -58 5 -3 15 -39 22 -80 7 -41 16 -78 21 -81
4 -3 11 -47 14 -97 3 -51 9 -92 13 -92 4 0 10 -37 13 -82 3 -45 10 -84 16 -86
6 -2 11 -25 11 -51 0 -62 18 -155 30 -159 6 -2 10 -12 10 -22 0 -10 6 -25 14
-32 8 -8 19 -41 26 -74 7 -32 17 -62 23 -65 5 -4 12 -42 15 -85 3 -44 8 -81
13 -84 13 -9 29 -166 29 -283 0 -107 -17 -247 -30 -257 -4 -3 -9 -38 -12 -78
-2 -40 -9 -76 -15 -80 -7 -4 -16 -19 -22 -33 -8 -23 -17 -27 -73 -33 -34 -4
-65 -12 -68 -17 -4 -5 -43 -14 -88 -21 -45 -6 -82 -15 -82 -19 0 -4 -17 -11
-37 -15 -44 -7 -93 -26 -93 -35 0 -4 -15 -9 -32 -12 -18 -4 -43 -9 -55 -13
-32 -9 -29 9 6 44 19 19 34 48 42 85 8 31 17 57 21 57 4 0 10 16 14 35 3 19
10 35 15 35 4 0 14 19 21 43 6 23 17 45 23 49 14 10 14 566 0 576 -6 4 -17 26
-25 50 -7 23 -17 42 -22 42 -4 0 -8 9 -8 20 0 11 -9 28 -20 38 -11 9 -23 34
-27 54 -3 21 -9 38 -13 38 -4 0 -11 16 -14 35 -4 19 -11 35 -16 35 -5 0 -12
23 -16 50 -4 28 -9 50 -13 50 -8 0 -31 74 -31 100 0 11 -4 20 -9 20 -4 0 -11
19 -14 42 -3 24 -11 44 -16 46 -6 2 -11 10 -11 18 0 23 -24 94 -32 94 -4 0
-11 18 -14 40 -4 22 -10 40 -15 40 -4 0 -13 26 -19 57 -7 31 -18 63 -26 71 -8
7 -14 20 -14 28 0 8 -4 14 -10 14 -5 0 -10 9 -10 19 0 11 -6 26 -12 33 -20 21
-38 56 -38 73 0 8 -4 15 -10 15 -5 0 -10 7 -10 15 0 9 -7 18 -15 21 -8 3 -19
22 -26 42 -6 20 -16 41 -21 46 -4 6 -17 22 -28 35 -11 13 -20 30 -20 38 0 7
-7 16 -15 19 -8 4 -15 11 -15 18 0 6 -9 19 -20 29 -11 9 -20 23 -20 31 0 8 -7
16 -15 20 -8 3 -15 12 -15 21 0 8 -16 31 -35 49 -19 19 -35 38 -35 42 0 11
-61 63 -82 70 -10 3 -18 10 -18 16 0 16 -100 108 -117 108 -7 0 -18 11 -23 24
-5 13 -19 27 -31 31 -37 12 -44 25 -41 75 l4 47 51 7 c29 3 91 6 140 6 51 0
87 4 87 10 0 6 30 10 70 10 39 0 70 -4 70 -9z m-520 -91 l0 -30 -57 6 c-86 8
-103 13 -103 29 0 14 27 19 123 23 35 2 37 0 37 -28z m960 1 c0 -9 98 -31 142
-31 15 0 28 -4 28 -10 0 -5 19 -10 43 -10 23 0 67 -7 97 -15 30 -8 72 -15 92
-15 28 0 38 -5 43 -20 5 -15 15 -20 41 -20 19 0 34 -4 34 -9 0 -4 19 -11 42
-14 24 -3 44 -10 46 -15 2 -6 12 -20 22 -32 10 -12 21 -34 25 -49 3 -15 18
-35 35 -45 17 -9 30 -24 30 -32 0 -8 5 -14 10 -14 6 0 10 -6 10 -14 0 -8 9
-25 20 -38 52 -61 61 -73 66 -95 4 -13 10 -23 15 -23 5 0 9 -11 9 -24 0 -14 6
-31 14 -39 8 -8 19 -40 25 -72 6 -33 15 -61 20 -64 4 -3 12 -28 16 -56 4 -27
11 -53 16 -56 6 -3 12 -46 16 -95 3 -49 10 -91 14 -94 5 -3 14 -84 20 -180 6
-96 15 -177 20 -180 14 -9 16 -809 2 -818 -6 -4 -18 -30 -25 -57 -7 -28 -15
-52 -19 -55 -3 -3 -9 -33 -12 -68 -6 -54 -12 -68 -40 -95 -18 -18 -49 -41 -70
-52 -20 -11 -37 -23 -37 -26 0 -4 -12 -10 -27 -14 -16 -4 -36 -15 -46 -26 -34
-36 -47 -25 -47 41 0 33 4 60 9 60 4 0 11 30 14 67 4 38 11 69 17 71 13 5 14
352 1 352 -5 0 -12 41 -16 90 -4 50 -11 90 -15 90 -4 0 -10 28 -13 61 -3 34
-10 65 -16 68 -5 4 -13 26 -17 49 -4 24 -12 49 -19 56 -7 7 -16 28 -20 47 -4
19 -11 36 -16 40 -11 7 -29 100 -29 150 0 20 -5 39 -11 41 -6 2 -13 52 -16
126 -3 67 -9 122 -14 122 -4 0 -13 47 -20 105 -7 58 -16 105 -20 105 -4 0 -10
16 -13 35 -4 19 -11 35 -15 35 -5 0 -12 27 -16 60 -4 33 -11 60 -15 60 -5 0
-12 15 -15 33 -4 17 -16 40 -26 50 -11 10 -19 27 -19 37 0 11 -4 20 -9 20 -5
0 -14 15 -22 33 -7 17 -19 36 -26 40 -7 4 -13 14 -13 20 0 7 -13 21 -30 30
-17 10 -30 27 -30 38 0 10 -6 19 -14 19 -8 0 -18 9 -21 20 -3 11 -11 20 -16
20 -5 0 -9 5 -9 12 0 7 -9 21 -20 33 -32 32 -70 79 -70 88 0 4 -7 7 -15 7 -8
0 -15 4 -15 8 0 5 -11 15 -25 22 -14 7 -25 19 -25 25 0 7 -11 17 -25 23 -15 7
-25 20 -25 32 0 11 -4 20 -10 20 -5 0 -10 5 -10 10 0 6 14 10 30 10 17 0 30
-4 30 -9z m-1278 -42 c4 -13 64 -26 161 -35 42 -4 77 -11 77 -15 0 -5 9 -9 19
-9 11 0 23 -4 26 -10 12 -19 63 -11 70 10 7 21 25 28 25 10 0 -6 11 -15 25
-20 14 -5 25 -16 25 -23 0 -8 12 -20 27 -28 35 -18 113 -92 113 -106 0 -7 10
-15 22 -19 27 -8 78 -54 78 -70 0 -6 11 -17 25 -24 13 -7 27 -26 30 -42 4 -16
13 -32 21 -35 7 -2 16 -14 20 -25 3 -11 13 -28 22 -38 33 -36 42 -49 42 -60 0
-6 7 -13 15 -16 8 -4 15 -13 15 -20 0 -8 6 -17 14 -20 8 -3 18 -18 21 -34 3
-16 15 -38 26 -51 10 -12 19 -28 19 -36 0 -7 5 -13 10 -13 6 0 10 -9 10 -19 0
-11 8 -26 19 -33 10 -7 22 -28 25 -46 4 -17 11 -32 16 -32 10 0 30 -56 30 -86
0 -13 4 -24 10 -24 5 0 12 -16 16 -35 3 -19 10 -35 14 -35 4 0 11 -16 15 -36
3 -20 12 -43 20 -50 7 -8 16 -32 20 -54 4 -22 11 -40 16 -40 4 0 11 -22 15
-50 4 -27 10 -50 13 -50 8 0 31 -82 31 -110 0 -11 4 -20 9 -20 5 0 12 -20 15
-45 4 -25 11 -45 16 -45 5 0 14 -25 20 -55 6 -30 16 -55 21 -55 5 0 11 -11 15
-25 3 -14 10 -25 14 -25 5 0 12 -10 16 -22 3 -12 13 -28 20 -35 7 -8 16 -30
20 -51 4 -20 12 -40 18 -44 16 -11 15 -500 -1 -505 -6 -2 -17 -26 -24 -54 -7
-27 -16 -49 -21 -49 -4 0 -8 -9 -8 -19 0 -11 -6 -26 -14 -33 -7 -8 -17 -29
-21 -46 -3 -18 -10 -32 -15 -32 -4 0 -10 -13 -13 -30 -4 -17 -13 -30 -21 -30
-19 0 -29 -34 -22 -75 6 -31 5 -33 -31 -39 -21 -3 -60 -6 -87 -6 -73 0 -226
-21 -226 -31 0 -5 -20 -9 -44 -9 -32 0 -46 5 -50 17 -8 21 3 103 15 103 4 0
11 23 15 50 4 28 10 50 14 50 4 0 10 35 14 77 4 43 11 80 16 83 12 7 30 121
30 187 0 32 5 53 13 55 9 4 12 50 12 188 0 138 -3 184 -12 187 -7 3 -13 20
-13 38 0 44 -21 138 -33 146 -5 4 -12 37 -14 75 -3 38 -10 72 -15 75 -4 3 -11
35 -15 72 -3 37 -9 67 -13 67 -4 0 -13 43 -20 95 -7 52 -16 95 -20 95 -5 0
-11 23 -15 50 -4 28 -10 50 -14 50 -4 0 -13 25 -20 55 -7 30 -16 55 -21 55 -5
0 -12 16 -16 35 -3 19 -10 35 -15 35 -5 0 -9 7 -9 15 0 8 -9 24 -19 34 -10 10
-22 30 -26 43 -4 12 -17 32 -29 43 -12 11 -28 34 -36 50 -8 17 -21 34 -27 38
-7 4 -13 12 -13 17 0 4 -16 26 -35 47 -20 21 -39 42 -43 46 -26 31 -117 107
-133 112 -10 4 -19 12 -19 19 0 7 -16 18 -35 26 -19 8 -35 18 -35 22 0 5 -14
14 -30 20 -17 5 -35 19 -41 29 -5 10 -16 19 -23 19 -7 0 -27 14 -44 30 -18 17
-38 30 -46 30 -8 0 -20 13 -27 29 -8 18 -26 33 -48 41 -42 15 -51 25 -51 62 0
56 -4 58 -109 58 -103 1 -109 15 -11 27 27 3 50 10 50 14 0 13 158 11 162 -2z
m-413 -68 c17 -18 42 -31 69 -36 41 -7 42 -7 42 -48 0 -53 36 -93 75 -83 20 5
25 13 25 36 0 17 -4 30 -10 30 -5 0 -10 9 -10 20 0 30 17 24 62 -20 23 -22 45
-40 50 -40 4 0 17 -8 27 -17 55 -51 70 -63 77 -63 5 0 20 -12 33 -25 13 -14
28 -25 35 -25 6 0 22 -12 35 -25 13 -14 29 -25 36 -25 7 0 15 -7 19 -15 3 -8
12 -15 21 -15 8 0 36 -20 62 -45 25 -25 51 -45 57 -45 6 0 24 -13 39 -30 16
-16 33 -30 38 -30 5 0 9 -6 9 -13 0 -7 18 -29 40 -48 22 -19 40 -39 40 -45 0
-7 7 -14 15 -18 8 -3 15 -12 15 -19 0 -8 9 -25 20 -38 11 -13 23 -28 28 -34 4
-5 14 -24 21 -42 7 -17 19 -34 27 -37 8 -3 14 -15 14 -26 0 -11 4 -20 9 -20 5
0 12 -13 16 -30 4 -16 10 -30 15 -30 4 0 13 -27 21 -60 7 -33 16 -60 20 -60 4
0 10 -22 14 -50 4 -27 10 -50 14 -50 4 0 13 -40 20 -90 7 -49 16 -90 21 -90 4
0 11 -36 14 -80 4 -44 12 -80 17 -80 5 0 9 -18 9 -41 0 -45 19 -131 31 -139 4
-3 11 -37 15 -75 4 -39 12 -73 18 -77 15 -10 15 -276 -1 -286 -6 -4 -14 -52
-18 -107 -4 -55 -12 -103 -17 -106 -5 -3 -14 -38 -20 -77 -6 -40 -14 -72 -18
-72 -4 0 -10 -30 -13 -66 -3 -37 -10 -69 -15 -73 -6 -3 -14 -31 -18 -60 -5
-40 -12 -55 -25 -58 -11 -3 -19 -14 -19 -23 0 -24 -13 -27 -135 -35 -55 -4
-103 -12 -106 -17 -10 -15 -298 -16 -307 -2 -9 15 -78 34 -124 34 -21 0 -38 4
-38 8 0 8 -97 25 -212 37 -35 4 -58 12 -62 21 -3 8 -12 14 -20 14 -8 0 -19 6
-23 12 -10 16 -70 48 -89 48 -8 0 -14 4 -14 9 0 5 -26 12 -57 16 -60 7 -94 31
-108 75 -3 11 -10 20 -15 20 -4 0 -14 20 -21 45 -7 25 -17 45 -21 45 -4 0 -10
15 -14 34 -3 19 -12 37 -20 40 -8 3 -14 15 -14 26 0 11 -7 23 -15 26 -8 4 -15
12 -15 19 0 8 -6 20 -14 27 -7 8 -17 24 -20 36 -4 12 -12 22 -17 22 -5 0 -9 6
-9 14 0 7 -15 30 -34 49 -19 20 -40 52 -46 72 -6 19 -16 35 -21 35 -5 0 -9 7
-9 15 0 9 -7 18 -15 21 -8 4 -15 14 -15 24 0 10 -6 25 -14 32 -7 8 -19 37 -26
66 -8 29 -17 52 -21 52 -3 0 -9 23 -13 50 -4 28 -10 50 -15 50 -8 0 -31 111
-31 154 0 14 -4 26 -9 26 -6 0 -13 20 -17 45 -3 25 -10 45 -15 45 -5 0 -9 56
-9 125 0 69 4 125 8 125 5 0 12 48 16 107 3 59 10 109 15 112 4 3 11 74 15
156 5 107 10 153 20 160 7 6 17 31 21 55 4 25 10 47 14 50 12 9 31 50 31 65 0
8 5 15 10 15 6 0 10 5 10 11 0 6 15 25 33 43 38 38 77 87 77 97 0 4 16 24 35
43 19 20 35 41 35 46 0 6 5 10 10 10 14 0 120 105 120 118 0 18 22 26 61 23
29 -1 39 3 43 17 3 10 22 24 41 31 19 7 35 17 35 22 0 18 22 9 49 -20z m2519
-177 c18 -8 32 -19 32 -24 0 -4 14 -13 30 -20 17 -7 30 -16 30 -21 0 -5 12
-15 28 -22 15 -6 49 -33 76 -59 27 -27 55 -48 63 -48 7 0 13 -4 13 -9 0 -5 16
-15 35 -22 19 -7 35 -17 35 -21 0 -4 7 -8 15 -8 9 0 27 -11 40 -24 13 -14 34
-27 45 -31 25 -8 40 -43 40 -91 0 -19 4 -34 9 -34 5 0 10 -130 12 -290 3 -197
8 -293 15 -298 6 -4 14 -52 17 -107 15 -243 20 -295 28 -295 12 0 11 -178 0
-182 -6 -1 -13 -49 -17 -106 -4 -65 -12 -109 -20 -117 -8 -7 -14 -19 -14 -25
0 -6 -7 -13 -15 -16 -8 -4 -15 -12 -15 -18 0 -7 -10 -22 -22 -33 -13 -11 -30
-29 -38 -41 -7 -12 -31 -28 -52 -37 -21 -8 -38 -19 -38 -23 0 -5 -12 -15 -27
-23 -15 -8 -35 -22 -45 -31 -29 -29 -38 -21 -38 31 0 52 17 112 34 123 16 11
15 876 -1 886 -7 5 -16 78 -24 212 -6 113 -15 207 -19 210 -4 3 -10 32 -14 65
-4 32 -10 62 -14 65 -10 6 -32 102 -32 136 0 13 -4 24 -10 24 -5 0 -10 9 -10
19 0 11 -6 26 -14 34 -8 8 -18 31 -21 51 -4 20 -11 36 -16 36 -5 0 -14 20 -20
45 -6 25 -15 45 -19 45 -13 0 -60 52 -60 68 0 8 -8 21 -17 28 -25 18 -3 17 35
-2z m644 -538 c7 -17 18 -37 25 -44 7 -7 13 -20 13 -28 0 -8 3 -14 8 -14 4 0
13 -15 21 -32 8 -18 25 -43 37 -54 12 -12 26 -39 30 -60 4 -22 10 -41 14 -44
4 -3 12 -52 18 -109 5 -57 14 -106 21 -110 6 -4 14 -42 17 -84 4 -42 11 -77
15 -77 5 0 9 -20 9 -45 0 -25 -4 -45 -9 -45 -5 0 -12 -22 -16 -50 -4 -27 -10
-50 -15 -50 -4 0 -11 -15 -14 -34 -4 -18 -15 -44 -26 -56 -11 -13 -20 -29 -20
-37 0 -7 -4 -13 -10 -13 -5 0 -10 -9 -10 -20 0 -11 -11 -30 -25 -42 -14 -12
-25 -27 -25 -35 0 -7 -11 -15 -25 -19 -14 -3 -29 -12 -33 -19 -4 -7 -8 81 -8
197 -1 124 -6 213 -11 217 -6 3 -13 62 -17 131 -5 75 -12 128 -19 132 -8 5
-12 86 -15 259 l-4 252 30 -19 c17 -10 37 -32 44 -48z"/>
<path d="M5070 6530 c-7 -16 -16 -30 -21 -30 -5 0 -11 -22 -15 -50 -4 -27 -10
-50 -14 -50 -5 0 -14 -24 -21 -52 -6 -29 -18 -59 -26 -66 -7 -7 -13 -22 -13
-33 0 -10 -4 -19 -9 -19 -6 0 -13 -20 -17 -45 -3 -25 -9 -45 -13 -45 -4 0 -13
-16 -21 -35 -8 -19 -17 -35 -21 -35 -4 0 -10 -9 -14 -19 -3 -11 -21 -26 -40
-36 -34 -15 -51 -51 -20 -39 8 4 15 9 15 13 0 3 15 14 33 24 18 10 39 32 47
50 7 18 20 38 27 45 7 7 13 22 13 33 0 10 4 19 9 19 5 0 12 18 16 40 4 22 10
40 15 40 4 0 13 21 20 47 6 26 16 51 21 54 6 3 13 25 16 48 3 22 9 41 13 41 4
0 11 15 14 34 4 18 15 44 26 56 23 27 25 40 6 40 -7 0 -19 -13 -26 -30z"/>
<path d="M4591 6330 c-6 -22 -16 -40 -21 -40 -5 0 -12 -20 -16 -45 -3 -25 -10
-45 -15 -45 -4 0 -11 -20 -15 -45 -3 -25 -10 -45 -14 -45 -4 0 -12 -25 -19
-55 -7 -30 -16 -55 -21 -55 -4 0 -11 -16 -14 -35 -4 -19 -11 -35 -16 -35 -6 0
-10 -15 -10 -32 0 -41 -19 -111 -32 -119 -5 -3 -12 -31 -15 -62 -3 -32 -9 -57
-14 -57 -4 0 -11 -20 -15 -45 -3 -25 -13 -49 -20 -53 -8 -5 -17 -31 -21 -60
-3 -29 -10 -52 -14 -52 -5 0 -9 -11 -9 -25 0 -16 6 -25 15 -25 11 0 15 12 15
45 0 25 4 45 8 45 5 0 14 24 22 53 7 28 17 55 23 58 5 4 12 27 14 53 3 25 9
46 12 46 4 0 13 29 20 65 7 36 17 65 21 65 4 0 11 25 15 55 3 30 10 55 15 55
5 0 14 27 21 60 6 33 15 60 20 60 4 0 10 14 14 30 4 17 10 30 15 30 4 0 11 25
15 55 3 30 10 55 14 55 3 0 13 20 20 45 7 25 17 45 21 45 4 0 10 11 12 25 8
41 -18 29 -31 -15z"/>
<path d="M5778 6007 c-16 -6 -28 -14 -28 -19 0 -4 -11 -8 -24 -8 -32 0 -89
-21 -99 -36 -4 -7 -21 -15 -38 -19 -17 -4 -32 -12 -35 -19 -3 -7 -20 -19 -39
-26 -19 -8 -35 -17 -35 -21 0 -3 -20 -12 -45 -19 -25 -7 -45 -16 -45 -21 0 -4
-9 -11 -21 -14 -11 -4 -18 -9 -16 -12 8 -7 90 20 105 34 7 7 24 16 38 19 13 3
24 9 24 13 0 4 16 13 35 21 19 8 35 16 35 20 0 3 20 14 45 25 25 11 45 23 45
27 0 4 23 10 51 14 28 4 56 12 62 19 7 6 26 17 42 23 l30 10 -30 0 c-16 0 -42
-5 -57 -11z"/>
<path d="M5584 5583 c-22 -21 -53 -45 -70 -53 -16 -8 -33 -20 -39 -26 -5 -6
-26 -17 -45 -25 -35 -13 -46 -21 -80 -50 -10 -9 -35 -22 -56 -29 -22 -7 -43
-18 -49 -24 -5 -7 -25 -19 -42 -27 -18 -7 -33 -17 -33 -20 0 -4 -29 -15 -64
-24 -36 -10 -67 -24 -70 -31 -3 -7 -21 -16 -40 -20 -20 -3 -36 -10 -36 -15 0
-4 -27 -14 -60 -21 -33 -6 -60 -16 -60 -20 0 -4 -6 -8 -14 -8 -7 0 -27 -7 -42
-15 -16 -8 -37 -15 -46 -15 -10 0 -18 -4 -18 -10 0 -5 -10 -10 -23 -10 -29 0
-37 -7 -30 -26 7 -19 20 -18 45 6 12 11 34 20 49 20 15 0 29 6 32 14 3 8 31
20 61 27 31 7 56 15 56 19 0 4 18 10 39 14 22 3 46 12 54 20 7 8 33 20 55 27
23 7 42 15 42 19 0 5 12 11 28 14 36 9 82 29 82 37 0 3 16 11 35 19 19 8 35
17 35 21 0 4 20 15 45 25 25 9 45 20 45 24 0 4 15 13 33 21 17 7 34 16 37 19
3 3 22 14 43 23 20 10 37 22 37 27 0 6 6 10 13 10 7 0 22 8 33 18 10 10 27 21
37 25 9 3 17 13 17 21 0 8 8 20 18 25 14 9 15 10 1 11 -9 0 -34 -17 -55 -37z"/>
<path d="M2510 6505 c0 -8 4 -15 9 -15 4 0 11 -19 14 -41 3 -23 10 -45 14 -48
5 -3 15 -46 23 -96 7 -49 19 -95 26 -103 8 -7 14 -22 14 -33 0 -10 4 -19 8
-19 5 0 15 -26 22 -57 7 -31 19 -63 26 -71 8 -7 14 -24 14 -38 0 -13 4 -24 9
-24 5 0 11 -9 14 -20 5 -20 27 -28 27 -10 0 6 -4 10 -10 10 -5 0 -10 13 -10
29 0 16 -6 36 -14 43 -7 8 -17 29 -21 46 -3 18 -10 32 -15 32 -4 0 -11 20 -14
45 -4 25 -13 51 -21 58 -7 8 -17 32 -21 53 -4 21 -10 41 -13 44 -4 3 -12 41
-18 85 -6 44 -16 81 -22 83 -6 2 -11 17 -11 33 0 19 -5 29 -15 29 -8 0 -15 -7
-15 -15z"/>
<path d="M2780 6435 c0 -8 4 -15 9 -15 5 0 11 -19 14 -42 9 -69 19 -108 27
-108 5 0 12 -29 15 -65 4 -36 11 -65 15 -65 4 0 13 -26 20 -57 7 -31 19 -63
26 -71 8 -7 14 -20 14 -28 0 -8 5 -14 10 -14 6 0 10 -9 10 -19 0 -11 6 -26 13
-33 7 -7 20 -28 28 -45 7 -18 17 -33 21 -33 3 0 9 -18 13 -40 4 -22 11 -40 16
-40 5 0 9 -9 9 -20 0 -23 21 -72 35 -82 5 -4 17 -8 25 -8 10 0 11 3 4 8 -6 4
-14 17 -18 30 -4 12 -11 22 -15 22 -5 0 -14 27 -21 60 -7 33 -17 60 -21 60 -5
0 -9 9 -9 20 0 10 -9 24 -20 30 -10 6 -22 26 -26 45 -3 19 -10 35 -15 35 -5 0
-9 9 -9 19 0 11 -7 26 -15 34 -7 8 -17 28 -21 43 -4 16 -11 32 -17 35 -5 4
-14 41 -20 83 -6 42 -14 76 -18 76 -4 0 -11 20 -15 45 -3 25 -10 45 -15 45 -5
0 -9 11 -9 24 0 31 -20 86 -31 86 -5 0 -9 -7 -9 -15z"/>
<path d="M1960 5860 c0 -5 5 -10 10 -10 6 0 10 -8 10 -18 0 -20 50 -68 83 -78
12 -3 29 -14 38 -23 9 -9 46 -23 82 -31 37 -7 67 -17 67 -21 0 -3 27 -12 60
-20 33 -7 60 -17 60 -21 0 -10 64 -25 143 -33 37 -4 67 -11 67 -15 0 -7 67
-30 89 -30 6 0 11 5 11 10 0 6 -11 10 -24 10 -13 0 -26 5 -28 11 -2 6 -50 17
-108 26 -57 8 -109 21 -116 28 -7 7 -32 15 -56 19 -23 4 -45 11 -48 16 -3 4
-37 16 -75 27 -39 10 -76 23 -83 30 -7 7 -19 13 -26 13 -7 0 -26 11 -42 25
-16 14 -39 28 -51 31 -14 4 -24 17 -28 35 -6 26 -35 42 -35 19z"/>
<path d="M2143 3703 c-13 -2 -23 -9 -23 -14 0 -5 -14 -9 -31 -9 -61 0 -69 -12
-69 -101 0 -77 1 -80 27 -90 15 -6 31 -15 34 -21 4 -6 29 -11 57 -11 42 -1 55
4 72 23 11 13 20 31 20 42 0 10 5 18 10 18 16 0 12 109 -4 126 -8 7 -16 18
-18 23 -4 12 -46 20 -75 14z"/>
<path d="M2980 3665 c-8 -2 -50 -7 -93 -10 -72 -6 -77 -8 -84 -33 -8 -32 13
-114 33 -125 8 -5 22 -16 32 -26 24 -26 116 -37 151 -20 14 8 30 20 34 26 4 7
14 13 21 13 8 0 28 13 45 29 64 60 28 135 -69 144 -30 3 -62 4 -70 2z m-10
-95 c0 -13 -20 -13 -40 0 -12 8 -9 10 13 10 15 0 27 -4 27 -10z"/>
<path d="M2213 3105 c-7 -8 -21 -18 -30 -24 -16 -9 -18 -30 -18 -236 0 -153 4
-228 11 -233 6 -4 14 -19 18 -34 3 -16 11 -28 16 -28 6 0 10 -6 10 -13 0 -8 8
-24 18 -36 9 -11 26 -33 37 -47 45 -57 54 -65 86 -76 19 -6 37 -16 41 -22 5
-7 76 -12 201 -15 163 -2 196 -1 209 12 8 8 49 21 91 28 43 7 77 16 77 19 0 3
16 12 35 20 19 8 35 17 35 22 0 4 6 8 14 8 8 0 45 30 83 66 l68 66 0 173 0
172 -51 50 c-32 32 -70 57 -102 68 -29 11 -52 23 -52 27 0 15 -130 9 -146 -6
-37 -37 -3 -74 56 -61 29 6 100 -12 100 -26 0 -4 13 -10 30 -14 16 -4 32 -15
35 -26 4 -10 12 -19 20 -19 14 0 25 -21 25 -51 0 -10 5 -19 10 -19 6 0 10 -33
10 -80 0 -44 -4 -80 -9 -80 -5 0 -11 -23 -15 -50 -5 -34 -14 -57 -28 -68 -12
-9 -31 -26 -42 -38 -12 -12 -32 -25 -46 -29 -14 -4 -30 -14 -35 -22 -6 -8 -42
-19 -80 -26 -39 -6 -73 -15 -76 -21 -26 -36 -419 -31 -419 5 0 5 -6 9 -13 9
-14 0 -39 27 -57 61 -7 12 -22 32 -34 43 -31 30 -46 90 -46 185 0 47 -4 81
-10 81 -6 0 -10 37 -10 90 0 53 4 90 10 90 6 0 10 8 11 18 0 10 3 12 6 5 12
-31 63 -2 63 35 0 13 -10 24 -30 31 -16 5 -30 15 -30 20 0 16 -33 13 -47 -4z"/>
<path d="M7294 4401 c3 -5 22 -12 42 -15 19 -4 43 -10 52 -13 15 -5 15 -4 2 9
-16 17 -105 35 -96 19z"/>
<path d="M7662 4193 c2 -20 8 -38 13 -40 7 -2 9 12 7 37 -2 22 -8 40 -14 40
-5 0 -8 -17 -6 -37z"/>
<path d="M7055 4159 c-4 -6 -5 -13 -2 -16 7 -7 27 6 27 18 0 12 -17 12 -25 -2z"/>
<path d="M6705 3910 c-8 -12 52 -12 80 0 15 6 8 9 -27 9 -26 1 -50 -3 -53 -9z"/>
<path d="M6266 3685 c-4 -12 4 -15 45 -15 45 0 49 2 35 15 -8 8 -28 15 -44 15
-17 0 -32 -6 -36 -15z"/>
</g>
</svg>
